<svg width="1696" height="1581" viewBox="0 0 1696 1581" fill="none" xmlns="http://www.w3.org/2000/svg">
<path d="M622.991 785.461C457.522 785.461 343.416 991.309 307.047 1094.23L601.571 1165.38C690.999 1008.44 653.113 846.709 622.991 785.461Z" fill="black"/>
<path d="M175.18 1214.43C-154.152 861.307 55.362 578.691 201.285 481.523C240.377 622.992 305.931 616.453 333.821 595.5C491.794 557.922 579.035 669.182 602.91 729.508C343.862 843.485 294.998 1009.96 268.892 1130.84C248.008 1227.55 197.715 1226.86 175.18 1214.43Z" fill="black"/>
<path d="M284.99 438.984L293.683 421.975C316.591 377.15 380.112 378.933 401.879 425.013C406.662 435.139 408.688 446.361 407.741 457.484L406.106 476.69C401.161 534.755 329.984 556.846 293.037 511.782C276.174 491.213 272.995 462.455 284.99 438.984Z" fill="black"/>
<path d="M338.739 247.258C804.803 -190.259 1297.53 41.1371 1510.38 267.699C1650.32 416.649 1824.54 850.185 1551.46 1262C1278.39 1673.82 716.151 1600.34 469.168 1512.13C757.953 1536.38 798.811 1428.89 761.86 1318C731.451 1226.74 727.275 1121.66 754.168 1029.3C777.332 949.748 776.466 874.565 770.179 834.983C759.721 794.446 728.948 705.911 689.511 676.062C661.354 654.75 611.725 608.456 572.589 570.724C546.277 545.355 529.024 512.487 516.642 478.098C490.231 404.745 458.538 376.78 443.772 372.037C395.733 358.854 362.068 345.861 338.928 334.169C301.535 315.275 308.194 275.932 338.739 247.258ZM969.97 237.886C948.402 236.031 928.211 247.85 918.561 267.625L893.257 319.482C890.391 325.356 887.108 330.97 883.443 336.284C871.499 346.411 860.655 357.841 851.123 370.359C837.119 381.831 821.05 390.293 803.809 395.24L743.272 412.612C729.075 416.687 718.33 428.362 714.858 443.009C710.286 462.3 719.189 482.66 736.537 491.83L807.899 529.551C820.475 637.504 910.608 721.221 1019.93 721.221C1137.86 721.221 1233.46 623.801 1233.46 503.629C1233.46 383.457 1137.86 286.037 1019.93 286.037C1019.87 286.037 1019.81 286.037 1019.75 286.037L1017.85 279.064C1011.72 256.47 992.684 239.839 969.97 237.886Z" fill="black"/>
<g filter="url(#filter0_g_673_4716)">
<path d="M920.905 282.055C929.839 263.745 948.534 252.801 968.504 254.518C989.536 256.327 1007.16 271.726 1012.84 292.647L1025.87 340.637C1030.66 358.291 1039.53 374.479 1051.65 387.756L1063.4 400.617C1070.95 408.886 1079.82 415.676 1089.58 420.672L1147.59 450.377C1166.48 460.049 1174.4 483.623 1165.58 503.063C1160.91 513.352 1152.12 521.038 1141.39 523.982L1042.63 551.098C1041.16 551.501 1039.7 551.932 1038.25 552.389C1013.1 560.317 997.549 584.927 989.188 612.366C984.776 626.843 977.653 642.509 967.546 653.853C957.318 665.334 943.434 672.926 926.313 669.107C925.819 668.997 925.325 668.88 924.832 668.756C910.152 665.078 900.564 654.768 894.242 642.659C887.971 630.646 884.617 616.341 882.48 603.452C878.308 578.285 870.083 554.412 850.722 542.005C848.57 540.627 846.362 539.338 844.105 538.145L752.363 489.652C736.3 481.161 728.057 462.31 732.29 444.448C735.505 430.886 745.453 420.075 758.599 416.302L814.652 400.217C833.855 394.707 851.49 384.488 866.115 370.373L873.31 363.427C883.165 353.915 891.346 342.629 897.474 330.071L920.905 282.055ZM934.533 332.114C924.213 331.055 915.416 337.854 911.466 347.508L901.964 370.734C899.586 376.546 896.435 381.712 892.691 386.023L889.773 389.382C884.185 395.816 877.551 400.356 870.469 402.78L847.738 410.56C840.812 412.931 836.25 419.396 834.826 426.557C832.972 435.889 836.418 446.383 844.419 451.428L881.623 474.884C882.104 475.187 882.579 475.505 883.049 475.837C890.918 481.404 893.993 491.974 895.708 504.319L895.965 506.166C896.744 511.772 897.921 518.543 900.529 524.429C903.181 530.416 907.648 536.201 915.295 538.486C924.516 541.241 931.712 536.648 936.342 530.864C940.853 525.227 943.771 517.636 945.428 511.151L946.11 508.482C949.427 495.499 955.454 484.805 965.411 481.544L1005.46 468.427C1011.13 466.571 1015.32 461.909 1017.44 456.342C1021.32 446.131 1018.15 433.119 1008.77 427.391L985.243 413.023C981.704 410.861 978.417 407.88 975.575 404.168L970.812 397.947C966.195 391.916 962.758 384.478 960.89 376.272L955.607 353.059C953.156 342.294 945.237 333.212 934.533 332.114Z" fill="black"/>
</g>
<defs>
<filter id="filter0_g_673_4716" x="727.195" y="250.348" width="445.977" height="423.75" filterUnits="userSpaceOnUse" color-interpolation-filters="sRGB">
<feFlood flood-opacity="0" result="BackgroundImageFix"/>
<feBlend mode="normal" in="SourceGraphic" in2="BackgroundImageFix" result="shape"/>
<feTurbulence type="fractalNoise" baseFrequency="0.021410910412669182 0.021410910412669182" numOctaves="3" seed="1325" />
<feDisplacementMap in="shape" scale="7.9872012138366699" xChannelSelector="R" yChannelSelector="G" result="displacedImage" width="100%" height="100%" />
<feMerge result="effect1_texture_673_4716">
<feMergeNode in="displacedImage"/>
</feMerge>
</filter>
</defs>
</svg>
