<svg width="315" height="321" viewBox="0 0 315 321" fill="none" xmlns="http://www.w3.org/2000/svg">
<path d="M83.5068 266.199C87.3402 250.866 89.5068 236.1 89.5068 237.7C92.6735 229.366 100.107 212.999 104.507 214.199C108.907 215.399 140.34 222.699 155.507 226.199L163.507 291.199L155.507 294.699L147.507 231.199L104.507 223.699L91.5068 266.199L96.5068 270.199L116.507 292.699L109.507 294.699L94.5068 274.699H88.5068L94.5068 292.699H86.5068L83.0068 274.699H76.5068L60.0068 292.699H53.5068L73.5068 269.7L83.5068 266.199Z" fill="black"/>
<path d="M169.507 287.699L151.507 296.699L134.007 319.699L145.007 320.699L155.507 300.699L160.007 298.699L163.507 311.699L169.507 309.199L166.507 295.199L168.507 293.699L177.507 307.199L185.507 304.699L169.507 287.699Z" fill="black"/>
<path d="M110.271 3.75391L150.329 37.4443L150.475 37.5674L150.502 37.7559L158.323 92.7871L128.007 116.637L180.007 87.1367H179.848L246.232 49.2227L247.426 48.54L246.949 49.8301L230.146 95.2754L313.134 104.936L314.524 105.097L313.346 105.853L247.164 148.26L288.465 214.848L289.192 216.021L287.882 215.586L230.463 196.507C235.477 206.236 242.95 220.521 249.773 233.103C253.315 239.633 256.68 245.702 259.434 250.436C260.81 252.803 262.032 254.833 263.046 256.418C264.066 258.014 264.858 259.13 265.375 259.692C265.503 259.831 265.637 260.012 265.685 260.228C265.71 260.345 265.711 260.479 265.665 260.614C265.619 260.75 265.537 260.855 265.445 260.932C265.277 261.072 265.064 261.131 264.887 261.162C264.696 261.195 264.474 261.206 264.23 261.202C263.267 261.187 261.703 260.93 259.678 260.473C255.607 259.554 249.528 257.791 242.332 255.351C228.105 250.527 209.46 243.04 193.235 234.157L186.832 260.15L186.748 260.489L186.4 260.528L150.6 264.458L147.35 264.814L147.196 265.139L147.103 264.842L114.798 268.389L114.688 268.401L114.583 268.365L71.5215 253.767L71.3848 253.72L71.293 253.607L48.2607 225.158L48.0977 224.958L48.167 224.71L71.1279 142.238L48.4893 115.747L3.66895 131.109L3.04492 131.323L3.00781 130.665L0.0078125 77.165L0 77.0244L0.0664062 76.9004L31.0664 19.0908L31.1787 18.8818L31.4121 18.8369L109.854 3.64551L110.089 3.60059L110.271 3.75391Z" fill="black"/>
<path d="M76.0068 1.13672L56.5068 15.1367L74.0068 11.6367L76.0068 1.13672Z" fill="black" stroke="black"/>
<ellipse cx="59.0068" cy="61.8262" rx="26.5" ry="29" fill="white"/>
<ellipse cx="63.0068" cy="58.1367" rx="17.5" ry="19" fill="black"/>
</svg>
